{"title":"Ferrara Gomez - Ass Cream Sandwich - (Anal Creampie)","uid":10807865,"size":248199149,"categoryP":"porn","categoryS":"movie_clips","magnet":"?xt=urn:btih:0d4ba5f5ca47e3e686f157927b15fd63d5a8c937&amp;dn=Ferrara+Gomez+-+Ass+Cream+Sandwich+-+%28Anal+Creampie%29&amp;tr=udp%3A%2F%2Ftracker.openbittorrent.com%3A80&amp;tr=udp%3A%2F%2Fopen.demonii.com%3A1337&amp;tr=udp%3A%2F%2Ftracker.coppersurfer.tk%3A6969&amp;tr=udp%3A%2F%2Fexodus.desync.com%3A6969","seeders":4,"leechers":0,"uploader":"ThousandPeers","files":-1,"time":1408395722,"description":"Format                                   : AVI\nFormat/Info                              : Audio Video Interleave\nFile size                                : 236 MiB\nDuration                                 : 29mn 56s\nOverall bit rate mode                    : Variable\nOverall bit rate                         : 1 099 Kbps\nWriting application                      : VirtualDubMod 1.5.10.2 (build 2540/release)\nWriting library                          : Boilsoft AVI tool build 1/release\n\nVideo\nID                                       : 0\nFormat                                   : MPEG-4 Visual\nFormat profile                           : Simple@L3\nFormat settings, BVOP                    : 2\nFormat settings, QPel                    : No\nFormat settings, GMC                     : No warppoints\nFormat settings, Matrix                  : Default (MPEG)\nCodec ID                                 : XVID\nCodec ID/Hint                            : XviD\nDuration                                 : 29mn 56s\nBit rate                                 : 959 Kbps\nWidth                                    : 640 pixels\nHeight                                   : 352 pixels\nDisplay aspect ratio                     : 16:9\nFrame rate                               : 23.976 fps\nColor space                              : YUV\nChroma subsampling                       : 4:2:0\nBit depth                                : 8 bits\nScan type                                : Progressive\nCompression mode                         : Lossy\nBits/(Pixel*Frame)                       : 0.178\nStream size                              : 205 MiB (87%)\nWriting library                          : XviD 1.0.3 (UTC 2004-12-20)\n\nAudio\nID                                       : 1\nFormat                                   : MPEG Audio\nFormat version                           : Version 1\nFormat profile                           : Layer 3\nCodec ID                                 : 55\nCodec ID/Hint                            : MP3\nDuration                                 : 29mn 56s\nBit rate mode                            : Variable\nBit rate                                 : 128 Kbps\nChannel(s)                               : 1 channel\nSampling rate                            : 48.0 KHz\nCompression mode                         : Lossy\nStream size                              : 27.3 MiB (12%)\nAlignment                                : Aligned on interleaves\nInterleave, duration                     : 24 ms (0.58 video frame)\nInterleave, preload duration             : 515 ms\n","torrent":{"xt":"urn:btih:0d4ba5f5ca47e3e686f157927b15fd63d5a8c937","amp;dn":"Ferrara+Gomez+-+Ass+Cream+Sandwich+-+%28Anal+Creampie%29","amp;tr":["udp%3A%2F%2Ftracker.openbittorrent.com%3A80","udp%3A%2F%2Fopen.demonii.com%3A1337","udp%3A%2F%2Ftracker.coppersurfer.tk%3A6969","udp%3A%2F%2Fexodus.desync.com%3A6969"],"infoHash":"0d4ba5f5ca47e3e686f157927b15fd63d5a8c937","infoHashBuffer":{"type":"Buffer","data":[13,75,165,245,202,71,227,230,134,241,87,146,123,21,253,99,213,168,201,55]},"announce":[],"urlList":[]}}